<?xml version="1.0" encoding="UTF-8"?>
<svg id="Layer_2" data-name="Layer 2" xmlns="http://www.w3.org/2000/svg" viewBox="0 0 305.3 52.5">
  <defs>
    <style>
      .cls-1 {
        fill: #5a205b;
      }

      .cls-1, .cls-2 {
        fill-rule: evenodd;
        stroke-width: 0px;
      }

      .cls-2 {
        fill: #f48022;
      }

      .cls-3 {
        fill: #784081;
        font-family: ArialMT, Arial;
        font-size: 10.1px;
      }
    </style>
  </defs>
  <g id="Layer_1-2" data-name="Layer 1">
    <g>
      <path class="cls-1" d="m284.27,51.09c-4.71-.57-8.39-3.02-11.57-6.22-9.14-1.15-13.61-2.47-17.31-5.13,1.3-.86,2.49-1.79,3.38-3.22.6.64,1.08,1.16,1.66,1.77,7.45-1.88,14.08.26,20.1,4.41,8.19-3.27,13.45-12.46,12.5-21.45-.63-6.02-2.68-11.31-7.14-15.59-5.89-5.66-20.56-6.55-26.95,2.96-.31.45-.64.89-.96,1.33h-7.74c2.55-2.68,5.31-4.58,8.37-5.96,12.07-5.45,23.9-5.21,34.86,2.61,12.49,8.9,12.3,23.08-.1,32.17-3.15,2.31-6.71,3.73-10.68,4.92,1.98,1.22,3.93,1.67,5.89,2.08,3.43.72,6.85.66,10.25-.17,2.52-.61,4.56-1.83,5.52-4.42.11-.31.18-.76.94-.67.03,2.57-.99,4.66-2.85,6.38-3.05,2.8-6.81,3.8-10.79,4.28-.49.06-3.37.46-7.38-.07m-22.88-12.01c2.75,2.79,5.78,4.17,10.07,4.57-3-2.58-5.61-5.17-10.07-4.57Z"/>
      <path class="cls-1" d="m14.66,20.53h-5.11v11.62H0V.93h9.45v11.2c1.74.34,3.39.08,5.11.18,4.07-3.9,8.17-7.81,12.33-11.79h14.75c-6.11,5.4-11.97,10.58-17.97,15.88,6.5,5.27,12.84,10.42,19.44,15.78h-14.66c-4.54-3.84-9.25-7.81-13.79-11.64Z"/>
      <path class="cls-1" d="m132.5,32.24h-11.21c-2.7-7.3-5.41-14.6-8.17-22.05h8.88c1.61,5.09,3.24,10.22,5.01,15.8,2.04-5.58,3.93-10.72,5.82-15.86h8c1.93,5.08,3.87,10.18,5.93,15.61,1.77-5.39,3.44-10.48,5.12-15.6h8.97c-2.75,7.39-5.46,14.68-8.2,22.05h-11.42c-1.35-3.97-2.72-8.03-4.09-12.08-.13-.04-.26-.07-.39-.1-1.4,4.05-2.8,8.09-4.23,12.22Z"/>
      <path class="cls-1" d="m230.08,34.42c.5,1.46.72,2.79,2.26,3.65h-66.8V0h8.16v34.42h56.38Z"/>
      <path class="cls-1" d="m95.5,33.03c-3.1.01-5.81.02-8.51-.33-4.46-.58-6.7-2.83-7.14-7.27-.31-3.14-.42-6.28.05-9.4.45-3.04,2.12-5.26,5.15-5.84,6.83-1.3,13.74-1.37,20.58-.03,2.9.57,4.78,2.49,5.21,5.54.5,3.56.55,7.14.01,10.68-.6,3.94-2.76,5.75-6.86,6.27-2.95.38-5.9.43-8.47.37Zm-.18-17.39c-1.43-.04-2.84.12-4.24.38-2,.37-2.87,1.54-3.02,4.03-.25,4.03.29,5.45,2.36,6.15.17.06.35.12.53.15,2.94.49,5.89.52,8.83.02,1.49-.26,2.47-1.1,2.7-2.63.16-1.09.34-2.21.29-3.3-.16-3.3-.87-4.06-4.14-4.54-1.09-.16-2.21-.16-3.31-.24Z"/>
      <path class="cls-1" d="m75.3,32.21h-8.35c0-1.52,0-3.09,0-4.67-.02-2.59.02-5.18-.08-7.77-.09-2.49-.94-3.36-3.4-3.82-2.08-.39-4.16-.38-6.24.04-2.42.49-3.54,1.7-3.62,4.18-.11,3.33-.11,6.66-.17,9.99-.01.66.15,1.35-.2,2.07h-8.01V10.2h7.71v3.16c4.76-5.7,10.78-4.33,16.58-3.21,3.06.59,5.04,2.98,5.45,6.1.69,5.26.21,10.57.33,15.95Z"/>
      <path class="cls-2" d="m253.94,14.51c.08-.67.14-1.15.2-1.72.94-.18,1.84-.15,2.76-.01.34,1.06.18,2.11.17,3.14-.07,5.3.23,10.6-.2,15.89-.3,3.64-1.9,5.55-5.52,6.06-4.41.62-8.85.62-13.25-.07-3.25-.51-4.77-2.39-4.61-5.41h2.87c.3,2.18,1.94,2.73,3.91,2.96,2.89.33,5.77.33,8.66.02,4.16-.45,5.41-2.12,4.81-6.61-1.9,1.95-4.28,2.07-6.7,2.06-2.16,0-4.32.07-6.47-.08-5.23-.38-7.58-2.93-7.72-8.2,0-.18,0-.37,0-.55-.08-7,2.48-9.6,9.5-9.67,1.72-.02,3.45,0,5.18,0,3.2,0,3.9.24,6.41,2.2Zm-9.41,13.65c1.09,0,1.95.04,2.81,0,.8-.05,1.59-.17,2.38-.28,2.6-.33,3.88-1.56,4.13-4.15.14-1.4.13-2.83.04-4.24-.15-2.56-1.44-3.85-4.02-4.24-3.19-.48-6.38-.4-9.56.03-2.43.32-3.48,1.25-3.99,3.66-.43,2.01-.42,4.05.2,6.03.52,1.68,1.66,2.69,3.45,2.91,1.59.19,3.18.41,4.56.3Z"/>
      <path class="cls-2" d="m198.49,25.71h2.85c.17,2.57-.79,4.4-3.12,5-5.46,1.39-10.98,1.29-16.43-.07-1.81-.45-2.84-1.9-3.38-3.63-1.06-3.38-1.07-6.8-.02-10.18.75-2.39,2.46-3.78,4.94-4.14,4.17-.61,8.35-.62,12.51.01,2.84.43,4.65,2.17,5.31,4.96.37,1.55.53,3.14.43,4.95h-20.42c-.44,3.82.99,5.65,4.57,6.06,3.13.36,6.27.41,9.39-.01,2.13-.29,2.63-.76,3.37-2.94Zm-17.39-5.77h17.13c-.4-3.16-1.31-4.27-3.91-4.66-2.93-.44-5.88-.52-8.81-.11-3.09.44-3.99,1.42-4.4,4.77Z"/>
      <path class="cls-2" d="m264.34,22.57c-.11,4.23,1.14,5.7,4.99,6.13,2.88.32,5.77.3,8.66.03,1.95-.18,3.46-.85,3.77-3.03,1.06-.03,2.04-.22,2.98.12-.11,2.97-1.1,4.46-3.88,5.08-5.05,1.13-10.14.99-15.2-.06-2.05-.43-3.33-1.82-3.95-3.77-1.1-3.44-1.11-6.93,0-10.35.75-2.3,2.44-3.66,4.85-4.02,4.23-.63,8.47-.63,12.69.02,2.79.43,4.75,2.42,5.27,5.24.27,1.44.32,2.93.5,4.61h-20.68Zm.05-2.62h17.14c-.38-3.15-1.29-4.27-3.89-4.66-2.93-.44-5.87-.53-8.81-.11-3.1.44-3.99,1.4-4.43,4.78Z"/>
      <path class="cls-2" d="m226.19,15.09V4.63h2.86v26.78c-.92.25-1.76.17-2.61.07-.5-.53-.07-1.22-.29-1.64-5.41,2.73-11.04,2.02-16.63.98-2.24-.41-3.51-2.2-4.03-4.39-.67-2.8-.64-5.63-.02-8.43.64-2.83,2.59-4.52,5.49-4.98,3.44-.55,6.88-.36,10.33-.26,1.73.05,3.37.55,4.88,2.34Zm-8.9.25c-1.59-.07-3.12.02-4.65.23-2.58.37-3.74,1.38-4.17,3.92-.29,1.7-.28,3.44-.01,5.15.41,2.61,1.44,3.56,4.09,3.96,3.25.49,6.5.43,9.74-.02,2.16-.3,3.46-1.55,3.79-3.68.28-1.83.26-3.69,0-5.52-.33-2.31-1.54-3.42-3.88-3.77-1.65-.25-3.3-.39-4.91-.28Z"/>
      <text class="cls-3" transform="translate(164.76 49.22) scale(1.18 1)"><tspan x="0" y="0">The Quality Edge</tspan></text>
    </g>
  </g>
</svg>